<svg xmlns="http://www.w3.org/2000/svg" viewBox="0 0 64 64">
    <path
        d="M49.41,43.56h0c-.46.26-1,.51-1.49.75l-.19.08c-.48.21-1,.42-1.53.61l-.22.08a32.6,32.6,0,0,1-4,1.11l-.11,0c-.64.13-1.31.25-2,.36l-.62.09c-.53.08-1.08.15-1.63.21l-.76.08-1.68.13-.73,0c-.8,0-1.62.06-2.45.06h0c-.83,0-1.65,0-2.45-.06l-.73,0L27.14,47l-.76-.08c-.55-.06-1.1-.13-1.63-.21l-.62-.09c-.68-.11-1.35-.23-2-.36l-.11,0a32.6,32.6,0,0,1-4-1.11L17.8,45c-.54-.19-1.05-.4-1.53-.61l-.19-.08c-.53-.24-1-.49-1.49-.75h0A11,11,0,0,1,12.36,42a1,1,0,0,0-1.67.73v5.78C10.69,53.18,20.23,57,32,57s21.31-3.82,21.31-8.53V42.69A1,1,0,0,0,51.64,42,11,11,0,0,1,49.41,43.56Z" />
    <path
        d="M49.41,30.35c-.46.26-1,.51-1.49.75l-.19.08c-.48.21-1,.42-1.53.61l-.22.08A34.47,34.47,0,0,1,42,33l-.11,0c-.64.13-1.31.25-2,.36l-.62.09c-.53.08-1.08.15-1.63.21l-.76.08q-.82.07-1.68.12l-.73,0c-.8,0-1.62.06-2.45.06h0c-.83,0-1.65,0-2.45-.06l-.73,0q-.86,0-1.68-.12l-.76-.08c-.55-.06-1.1-.13-1.63-.21l-.62-.09c-.68-.11-1.35-.23-2-.36L22,33a34.47,34.47,0,0,1-4-1.11l-.22-.08c-.54-.19-1.05-.4-1.53-.61l-.19-.08c-.53-.24-1-.49-1.49-.75-.93-.53-1.72-1-2.34-1.38a1,1,0,0,0-1.56.82v5.47c0,4.71,9.54,8.53,21.31,8.53S53.31,40,53.31,35.26V29.79A1,1,0,0,0,51.75,29C51.13,29.39,50.34,29.82,49.41,30.35Z" />
    <path
        d="M32,7c-11.77,0-21.31,3.82-21.31,8.53v6.13c0,4.71,9.54,8.53,21.31,8.53s21.31-3.82,21.31-8.53V15.53C53.31,10.82,43.77,7,32,7Z" />
</svg>