<svg xmlns="http://www.w3.org/2000/svg" viewBox="0 0 64 64">
    <g>
        <path
            d="M44.77,18.6a13.87,13.87,0,0,0-3.42-9.13A.91.91,0,0,0,40,9.41L31.47,18a.9.9,0,0,0,0,1.27L40,27.8a.91.91,0,0,0,1.32-.06A13.87,13.87,0,0,0,44.77,18.6Z" />
        <path
            d="M30.16,18l7.48-7.48a.91.91,0,0,0-.12-1.37A11.56,11.56,0,0,0,30.23,7a11.6,11.6,0,0,0,.61,23.19,11.57,11.57,0,0,0,6.68-2.12.91.91,0,0,0,.12-1.37l-7.48-7.48A.9.9,0,0,1,30.16,18Z" />
    </g>
    <path
        d="M35.62,48.65a16,16,0,0,1-3.55.64c-1.81,0-2.48-.53-3.65-.68-3.75-.5-8.51,3.28-8.22,6,.09.81.31,2.35,1.65,2.35H42.39C43.86,57,44,55.34,44,54.6,44.26,51.82,39.42,48.12,35.62,48.65Z" />
    <ellipse cx="32.07" cy="41.37" rx="4.83" ry="5.73" />
    <ellipse cx="46.94" cy="39.32" rx="4.83" ry="5.73" />
    <path
        d="M50.49,46.6a15.54,15.54,0,0,1-3.55.63c-1.81,0-2.48-.52-3.65-.68a7.77,7.77,0,0,0-4.93,1.32,10.82,10.82,0,0,1,5,3A5.19,5.19,0,0,1,45,54.68,2.19,2.19,0,0,1,45,55H57.26c1.47,0,1.56-1.66,1.63-2.41C59.13,49.77,54.29,46.07,50.49,46.6Z" />
    <ellipse cx="17.06" cy="39.32" rx="4.83" ry="5.73" />
    <path
        d="M13.51,46.6a15.54,15.54,0,0,0,3.55.63c1.81,0,2.48-.52,3.65-.68a7.77,7.77,0,0,1,4.93,1.32,10.82,10.82,0,0,0-5.05,3A5.19,5.19,0,0,0,19,54.68,2.19,2.19,0,0,0,19,55H6.74c-1.47,0-1.56-1.66-1.63-2.41C4.87,49.77,9.71,46.07,13.51,46.6Z" />
</svg>